<?xml version="1.0" encoding="utf-8"?>
<!-- Generator: Adobe Illustrator 27.9.1, SVG Export Plug-In . SVG Version: 6.00 Build 0)  -->
<svg version="1.1" id="Layer_1" xmlns="http://www.w3.org/2000/svg" xmlns:xlink="http://www.w3.org/1999/xlink" x="0px" y="0px"
	 viewBox="0 0 30 30" xml:space="preserve">
<g>
	<path d="M17.02,1.59c0.64,0.12,1.29,0.2,1.92,0.37c1.94,0.53,3.52,1.61,4.77,3.17c0.97,1.21,1.59,2.59,1.88,4.11
		c0.31,1.64,0.13,3.26-0.35,4.85c-0.43,1.43-1.03,2.79-1.71,4.11c-0.01,0.03-0.03,0.05-0.04,0.06c-1.62-1.61-3.22-3.22-4.85-4.85
		c0.81-0.78,1.19-1.78,1.04-2.94c-0.11-0.84-0.52-1.53-1.16-2.07c-1.22-1.02-3.22-1.15-4.58,0.29c-1.41-1.41-2.83-2.83-4.27-4.27
		C9.86,4.24,10.09,4,10.35,3.8c1.52-1.25,3.25-2,5.22-2.17c0.05,0,0.1-0.03,0.15-0.04C16.15,1.59,16.59,1.59,17.02,1.59z"/>
	<path d="M3.01,4.65c0.57-0.56,1.12-1.12,1.65-1.64c7.44,7.44,14.9,14.9,22.34,22.34c-0.51,0.51-1.07,1.07-1.61,1.62
		c-1.44-1.44-2.92-2.93-4.44-4.45c-1.44,2.08-2.94,4.01-4.58,5.9c-0.69-0.85-1.38-1.68-2.05-2.52c-1.57-1.97-3.01-4.02-4.27-6.19
		c-1.11-1.92-2.1-3.89-2.67-6.05c-0.4-1.5-0.52-3.02-0.19-4.55c0.04-0.17,0-0.27-0.12-0.38c-1.3-1.29-2.59-2.59-3.89-3.88
		C3.12,4.77,3.06,4.71,3.01,4.65z"/>
</g>
</svg>
